<svg width="87" height="42" viewBox="0 0 87 42" fill="none" xmlns="http://www.w3.org/2000/svg">
<g clip-path="url(#clip0_12_22)">
<path d="M56.1864 24.0886H45.1954L45.2018 24.2496L45.2203 24.5594L45.2285 24.6917L45.2583 25.0494L45.2657 25.1294L45.3085 25.5254C45.3093 25.5382 45.3106 25.551 45.3126 25.5637L45.3684 25.9891C45.4955 26.8704 45.6844 27.7383 45.9373 28.5913L45.941 28.6024L46.0723 29.0264L46.0797 29.0498L46.2006 29.4097L46.2326 29.5005L46.3456 29.8117L46.3988 29.9523L46.4992 30.2125L46.5784 30.4059L46.6625 30.6067L46.774 30.8514L46.8391 31.0001L46.9759 31.2928L47.0213 31.3865L47.1861 31.7193L47.2121 31.7702L47.4129 32.1514L47.4557 32.2257L56.8732 26.5428C56.5029 25.7619 56.2723 24.9319 56.1868 24.0886H56.1864ZM45.7146 29.1316L45.7175 29.1416L46.0723 29.0301L45.7146 29.1316Z" fill="white"/>
<path d="M58.888 29.1373L51.116 36.9052L51.2361 37.016L51.5682 37.3105L51.8322 37.5344L51.9036 37.5938L52.2055 37.837L52.2446 37.8679L52.577 38.123C52.5815 38.1257 52.5858 38.1288 52.5897 38.1323L54.0381 39.1114L54.0902 39.143L54.3754 39.3114L54.5502 39.4111L54.716 39.504L55.0187 39.6676L55.0608 39.69L55.9172 40.1057L60.0996 29.9468C59.6749 29.72 59.2673 29.4508 58.8836 29.1362L58.888 29.1373Z" fill="white"/>
<path d="M58.0819 28.366L57.8401 28.0815L57.6393 27.8224L57.4244 27.5182L57.2236 27.2047L47.8242 32.8661L48.3084 33.6265L48.3474 33.6838L48.3497 33.6875L48.8547 34.3992L48.8658 34.4141L48.877 34.429L49.1053 34.7265L49.3794 35.0667L49.4381 35.1373L49.6627 35.4025L49.7617 35.5148L49.9565 35.7379L50.067 35.8576L50.1172 35.9119L50.2659 36.0681L50.3254 36.1291L50.5857 36.3953L58.3392 28.6423L58.0852 28.3708L58.0819 28.366Z" fill="white"/>
<path d="M68.3592 29.133L68.1 29.3338L68.1193 29.3661L73.7725 38.7497L74.546 38.2172C75.0926 37.8138 75.6225 37.3769 76.1327 36.9057L68.3897 29.1639L68.3592 29.133Z" fill="white"/>
<path d="M73.0581 39.1966L73.0708 39.1892L73.0704 39.1888L73.0581 39.1962V39.1966ZM73.0526 39.2003H73.0529H73.0526Z" fill="white"/>
<path d="M73.0704 39.1853L73.1447 39.1482L73.1433 39.1456L73.0704 39.1891V39.1853ZM73.0544 39.1984L73.0581 39.1965L73.0544 39.1984Z" fill="white"/>
<path d="M73.0526 39.2004H73.0529L73.0392 39.1773L73.0526 39.2004ZM73.0582 39.1967L73.0708 39.19L73.0582 39.1967ZM73.0507 39.2004L73.047 39.2023L73.0507 39.2008V39.2004Z" fill="white"/>
<path d="M73.0507 39.2003V39.2007L73.0525 39.1996H73.0522L73.0507 39.2003Z" fill="white"/>
<path d="M73.0544 39.1984L73.0522 39.1995L73.0578 39.1958L73.0544 39.1984ZM73.0708 39.1898L73.1444 39.1482L73.0708 39.1898ZM73.1444 39.1482L73.1429 39.1456L73.1444 39.1482ZM73.0447 39.2039H73.0455H73.0447Z" fill="white"/>
<path d="M73.0476 39.2028L73.0455 39.2038L73.0476 39.2028Z" fill="white"/>
<path d="M72.951 38.8273L67.4823 29.7542L67.1573 29.9353L66.8241 30.1026C65.8212 30.5796 64.7247 30.8276 63.6141 30.8288C62.8911 30.8288 62.1718 30.7238 61.4789 30.5172L61.1274 30.3938L60.7764 30.2692L56.6018 40.4076L56.6323 40.4188L56.6643 40.431H56.6646L56.6728 40.4347L57.4742 40.7415C58.6939 41.1719 59.9551 41.4738 61.2375 41.6421C61.2877 41.6483 61.3378 41.655 61.3878 41.6622L61.8422 41.7117L61.9158 41.718L62.2802 41.7485L62.4041 41.7559L62.7231 41.7745L62.9187 41.782L63.1724 41.7909L63.6253 41.7965C64.6511 41.7964 65.6752 41.7111 66.6869 41.5414L66.7382 41.5339L67.0595 41.4755L67.2454 41.4402L67.4332 41.4008L67.7463 41.332L67.8029 41.319C69.3419 40.96 70.8286 40.4056 72.227 39.6695L72.2274 39.6691L72.4988 39.5204L73.0503 39.2095L73.0414 39.1835L73.0552 39.2069L73.073 39.1965L73.1455 39.153L72.951 38.8273ZM58.8921 17.5635L59.1513 17.3627L59.132 17.3304L53.4792 7.95055L52.7039 8.48452C52.1572 8.88686 51.628 9.32378 51.119 9.79416L58.862 17.533L58.8921 17.5635Z" fill="white"/>
<path d="M50.5823 10.3054L50.0677 10.8427C49.4957 11.4619 48.9729 12.107 48.5014 12.7838L48.4337 12.8805L48.2764 13.1129L48.1165 13.3568L48.0585 13.446C46.3108 16.1916 45.3228 19.3515 45.1951 22.6035L45.185 22.9754L45.1787 23.3472H56.1444L56.1622 22.9754L56.1827 22.6035C56.3266 21.138 56.9021 19.7481 57.8364 18.6099C57.9108 18.5147 58.0026 18.4255 58.0863 18.3336C58.17 18.2418 58.2469 18.1462 58.3354 18.0577L50.5823 10.3054ZM73.208 7.58351L73.1626 7.55636L72.8714 7.38345L72.7015 7.28677L72.5304 7.19158L72.2329 7.03094L72.1861 7.0064C71.5428 6.67025 70.8827 6.37426 70.2085 6.11397L70.1564 6.09389L69.7102 5.93288C68.5128 5.51455 67.2737 5.22116 66.0153 5.05606L65.861 5.03524L65.7066 5.01813L65.4091 4.98578L65.3258 4.97834L64.9715 4.9486L64.5252 4.92145L64.3638 4.91513V15.9069C64.9279 15.9653 65.4869 16.0854 66.0291 16.2695L74.1217 8.18441C73.8223 7.97522 73.5168 7.77507 73.2054 7.58425L73.208 7.58351Z" fill="white"/>
<path d="M54.301 7.86829L54.1091 7.54962L54.301 7.86829ZM54.1039 7.5485L54.1051 7.55036L54.1039 7.5485ZM63.2542 4.91025L62.8823 4.91768C62.1066 4.94892 61.3323 5.02812 60.5644 5.15678L60.5139 5.16533L60.1922 5.22371L60.0063 5.25867L59.8173 5.29808L59.505 5.3665L59.4481 5.37915C57.909 5.73853 56.4221 6.29311 55.0236 7.02941L54.1051 7.54776L54.1062 7.54962L59.766 16.9462L60.091 16.7651C60.2005 16.7064 60.3115 16.6505 60.4239 16.5974C61.1965 16.2289 62.0269 15.9962 62.8786 15.9095L63.2504 15.8797L63.6223 15.8671L63.6227 4.90244C63.4985 4.90207 63.3746 4.90727 63.2508 4.90988L63.2542 4.91025Z" fill="white"/>
<path d="M82.0499 22.4412L82.0321 22.1456L82.0224 21.998L81.9938 21.6507L81.9864 21.5607L81.9454 21.1729L81.9417 21.1416L81.9399 21.1268L81.8841 20.7088C81.8837 20.7051 81.8833 20.6995 81.8822 20.6958C81.7559 19.8191 81.5665 18.9527 81.3155 18.1033L81.3103 18.0869L81.1883 17.6916L81.1716 17.6396L81.0526 17.2848L81.0191 17.1889L80.9076 16.8829L80.8518 16.7378L80.7532 16.4857L80.6722 16.2872L80.5904 16.0916L80.481 15.8424L80.4178 15.7019L80.2791 15.4055L80.236 15.3155L80.0694 14.9786L80.0452 14.9322L79.8518 14.5603C79.8492 14.5566 79.8474 14.5514 79.8444 14.5473C79.5246 13.9598 79.1743 13.3916 78.795 12.845L70.7012 20.939C70.8838 21.4786 71.0053 22.037 71.0634 22.6037H82.0559L82.0499 22.4412Z" fill="white"/>
<path d="M71.1066 23.3479L71.0887 23.7198L71.0683 24.0916C70.927 25.5195 70.3755 26.9176 69.4149 28.0852C69.3406 28.1804 69.2487 28.2697 69.165 28.3615C69.0814 28.4534 69.0044 28.5489 68.9159 28.6374L76.6694 36.3904C76.7575 36.3023 76.8404 36.2112 76.926 36.1216L77.1825 35.8528C77.7563 35.2318 78.2807 34.581 78.7533 33.9058L78.8084 33.8262L78.9787 33.5759L79.1256 33.351L79.1999 33.2413C80.9782 30.4487 81.9295 27.2843 82.0578 24.0912L82.0678 23.7194L82.0741 23.3475H71.1066V23.3479Z" fill="white"/>
<path d="M85.3287 1.64605C83.3225 -0.360065 80.0697 -0.360065 78.0639 1.64605C76.4633 3.24611 76.1435 5.6382 77.097 7.55917L65.9071 18.7488C63.986 17.7961 61.5934 18.1155 59.9932 19.7156C59.0303 20.6792 58.4894 21.9857 58.4894 23.348C58.4894 24.7102 59.0303 26.0168 59.9932 26.9804C60.957 27.9433 62.2637 28.4842 63.6261 28.4842C64.9885 28.4841 66.2952 27.9431 67.2588 26.98C68.859 25.3799 69.1784 22.9879 68.2257 21.0665L79.4152 9.87763C81.3367 10.8303 83.7289 10.5109 85.3287 8.91083C87.3353 6.90546 87.3353 3.65291 85.3291 1.64679L85.3287 1.64605Z" fill="white"/>
</g>
<g clip-path="url(#clip1_12_22)">
<path d="M0.857598 30.7249H3.81442C3.88852 31.18 3.93633 31.6351 4.03911 32.0807C4.34029 33.4007 5.06694 34.4801 6.03263 35.4046C7.82537 37.1225 10.0173 38.0517 12.4172 38.5616C13.7892 38.8547 15.178 38.9762 16.5763 38.9095C19.5403 38.7689 22.3298 38.0422 24.7608 36.2719C26.2451 35.1925 27.371 33.832 27.806 31.9997C27.904 31.5899 27.9351 31.1681 28.002 30.7297H30.9827C30.9612 31.8758 30.7581 32.9694 30.3159 34.0131C29.4147 36.1503 27.8945 37.7658 25.9894 39.0429C24.0317 40.3558 21.8661 41.1612 19.5523 41.5924C18.283 41.8283 17.0018 41.9594 15.7158 41.9308C12.1232 41.8569 8.74564 41.0158 5.73384 38.9762C3.71881 37.6109 2.1651 35.8668 1.32132 33.5532C1.02014 32.7288 0.790669 31.3563 0.855208 30.7225L0.857598 30.7249Z" fill="white"/>
<path d="M3.80009 11.2083H0.83371C0.840881 10.4244 0.943664 9.66908 1.15401 8.92806C1.70617 6.98139 2.81767 5.38498 4.32118 4.05781C6.52505 2.11115 9.12572 0.976982 11.9941 0.397985C13.3494 0.121592 14.7167 -0.0237528 16.0887 0.00245693C19.7985 0.0763207 23.274 0.965068 26.3432 3.13809C28.1741 4.43428 29.6012 6.06643 30.4186 8.18227C30.7915 9.14726 30.9541 10.1504 30.9875 11.1988H27.971C27.9423 10.3839 27.7845 9.59998 27.4499 8.85657C26.7615 7.32688 25.6237 6.19272 24.2373 5.29682C22.5521 4.20554 20.6901 3.56936 18.7109 3.24531C17.2432 3.00466 15.7732 2.93794 14.3007 3.08329C11.6881 3.343 9.23328 4.07688 7.08678 5.63993C5.68127 6.66449 4.57694 7.93209 4.0941 9.64048C3.95307 10.1361 3.90288 10.6579 3.80248 11.2035L3.80009 11.2083Z" fill="white"/>
<path d="M13.5765 14.1342C18.7635 17.8798 23.9242 21.604 29.1064 25.3448C28.5159 26.1573 27.9303 26.9603 27.3375 27.7775C22.1529 24.0343 16.997 20.3149 11.81 16.5693C12.4004 15.7544 12.9837 14.9538 13.5789 14.1342H13.5765Z" fill="white"/>
<path d="M20.1283 25.3615C19.5331 26.1811 18.9595 26.9722 18.3619 27.7966C13.1797 24.0558 8.0166 20.3292 2.832 16.586L4.60083 14.1532C9.77826 17.8917 14.9366 21.6159 20.1283 25.3639V25.3615Z" fill="white"/>
</g>
<defs>
<clipPath id="clip0_12_22">
<rect width="41.655" height="41.655" fill="white" transform="translate(45.1787 0.141464)"/>
</clipPath>
<clipPath id="clip1_12_22">
<rect width="30.1514" height="41.9379" fill="white" transform="translate(0.83371)"/>
</clipPath>
</defs>
</svg>
