<?xml version="1.0" encoding="UTF-8"?>
<svg xmlns="http://www.w3.org/2000/svg" xmlns:xlink="http://www.w3.org/1999/xlink" width="85px" height="103px" viewBox="0 0 43 52" version="1.1">
<g id="surface1">
<path style=" stroke:none;fill-rule:nonzero;fill:rgb(100%,100%,100%);fill-opacity:1;" d="M 37.277344 45.230469 C 37.242188 46.4375 37.109375 47.574219 36.496094 48.585938 C 35.515625 50.191406 34.125 51.203125 32.226562 51.402344 C 31.445312 51.488281 30.65625 51.503906 29.871094 51.503906 C 21.996094 51.511719 14.117188 51.503906 6.242188 51.511719 C 4.234375 51.511719 2.527344 50.867188 1.261719 49.25 C 0.542969 48.335938 0.175781 47.285156 0.0742188 46.136719 C 0.0546875 45.875 0.0546875 45.613281 0.0546875 45.351562 C 0.0546875 34.367188 0.0625 23.378906 0.046875 12.394531 C 0.0429688 10.394531 0.710938 8.730469 2.273438 7.460938 C 3.105469 6.78125 4.082031 6.417969 5.144531 6.292969 C 5.523438 6.246094 5.90625 6.234375 6.164062 6.214844 C 6.511719 5.214844 6.707031 4.207031 7.1875 3.359375 C 8.085938 1.769531 9.496094 0.792969 11.359375 0.601562 C 12.160156 0.519531 12.96875 0.5 13.773438 0.5 C 18.476562 0.492188 23.183594 0.5 27.886719 0.488281 C 28.558594 0.488281 29.074219 0.683594 29.5625 1.152344 C 33.808594 5.207031 38.066406 9.25 42.335938 13.28125 C 42.792969 13.714844 43 14.175781 43 14.816406 C 42.984375 22.921875 42.992188 31.023438 42.988281 39.128906 C 42.988281 42.109375 41.390625 44.234375 38.582031 45.019531 C 38.179688 45.128906 37.753906 45.160156 37.277344 45.234375 Z M 27.230469 2.824219 C 27.039062 2.8125 26.9375 2.800781 26.839844 2.800781 C 21.976562 2.800781 17.109375 2.800781 12.246094 2.800781 C 10.101562 2.800781 8.636719 4.472656 8.644531 6.503906 C 8.683594 17.386719 8.664062 28.269531 8.667969 39.152344 C 8.667969 39.53125 8.675781 39.925781 8.773438 40.289062 C 9.234375 41.992188 10.53125 42.917969 12.4375 42.917969 C 20.570312 42.921875 28.707031 42.902344 36.84375 42.933594 C 39.144531 42.945312 40.710938 41.390625 40.699219 39.101562 C 40.648438 31.484375 40.679688 23.867188 40.679688 16.25 L 40.679688 15.546875 C 40.382812 15.546875 40.164062 15.546875 39.949219 15.546875 C 38.027344 15.546875 36.109375 15.546875 34.195312 15.546875 C 32.71875 15.546875 31.246094 15.546875 29.773438 15.546875 C 29.15625 15.546875 28.589844 15.449219 28.085938 15.019531 C 27.421875 14.453125 27.234375 13.722656 27.230469 12.914062 C 27.226562 9.789062 27.230469 6.667969 27.230469 3.542969 C 27.230469 3.324219 27.230469 3.105469 27.230469 2.832031 Z M 6.355469 8.5625 C 6.121094 8.554688 5.949219 8.535156 5.773438 8.539062 C 3.707031 8.566406 2.339844 10.308594 2.347656 12.21875 C 2.378906 23.324219 2.359375 34.433594 2.367188 45.542969 C 2.367188 45.898438 2.386719 46.273438 2.480469 46.613281 C 2.976562 48.34375 4.207031 49.207031 6.160156 49.207031 C 13.066406 49.210938 19.972656 49.207031 26.878906 49.207031 C 28.371094 49.207031 29.867188 49.226562 31.359375 49.203125 C 33.636719 49.167969 35.222656 47.402344 34.902344 45.222656 L 34.203125 45.222656 C 26.992188 45.222656 19.78125 45.222656 12.574219 45.21875 C 11.175781 45.21875 9.855469 44.929688 8.710938 44.058594 C 7.054688 42.804688 6.351562 41.117188 6.355469 39.074219 C 6.363281 29.175781 6.359375 19.277344 6.359375 9.382812 C 6.359375 9.125 6.359375 8.863281 6.359375 8.5625 Z M 29.570312 13.234375 L 38.953125 13.234375 C 35.792969 10.242188 32.714844 7.332031 29.570312 4.351562 Z M 29.570312 13.234375 "/>
<path style=" stroke:none;fill-rule:nonzero;fill:rgb(100%,100%,100%);fill-opacity:1;" d="M 24.710938 21.867188 C 28.042969 21.867188 31.371094 21.871094 34.699219 21.863281 C 35.253906 21.863281 35.695312 22.023438 35.929688 22.550781 C 36.210938 23.1875 35.871094 23.898438 35.195312 24.085938 C 34.96875 24.148438 34.714844 24.160156 34.480469 24.160156 C 27.941406 24.164062 21.402344 24.160156 14.867188 24.160156 C 14.765625 24.160156 14.664062 24.164062 14.5625 24.160156 C 13.824219 24.121094 13.335938 23.667969 13.328125 23.015625 C 13.324219 22.339844 13.824219 21.875 14.601562 21.871094 C 17.6875 21.863281 20.773438 21.871094 23.863281 21.871094 C 24.144531 21.871094 24.429688 21.871094 24.710938 21.871094 Z M 24.710938 21.867188 "/>
<path style=" stroke:none;fill-rule:nonzero;fill:rgb(100%,100%,100%);fill-opacity:1;" d="M 24.644531 37.882812 C 21.417969 37.882812 18.1875 37.882812 14.960938 37.882812 C 14.761719 37.882812 14.554688 37.890625 14.355469 37.871094 C 13.796875 37.816406 13.386719 37.402344 13.335938 36.851562 C 13.289062 36.304688 13.617188 35.800781 14.15625 35.664062 C 14.40625 35.601562 14.671875 35.59375 14.933594 35.59375 C 21.429688 35.589844 27.925781 35.589844 34.421875 35.589844 C 34.542969 35.589844 34.664062 35.585938 34.789062 35.589844 C 35.550781 35.636719 36.0625 36.132812 36.03125 36.792969 C 36 37.441406 35.507812 37.875 34.753906 37.875 C 31.386719 37.882812 28.015625 37.878906 24.644531 37.878906 Z M 24.644531 37.882812 "/>
<path style=" stroke:none;fill-rule:nonzero;fill:rgb(100%,100%,100%);fill-opacity:1;" d="M 24.730469 28.734375 C 27.957031 28.734375 31.1875 28.734375 34.414062 28.734375 C 34.65625 28.734375 34.902344 28.734375 35.140625 28.773438 C 35.644531 28.867188 36.015625 29.335938 36.027344 29.855469 C 36.039062 30.367188 35.675781 30.859375 35.179688 30.96875 C 34.945312 31.019531 34.699219 31.019531 34.457031 31.019531 C 27.941406 31.019531 21.421875 31.019531 14.910156 31.019531 C 14.667969 31.019531 14.421875 31.019531 14.1875 30.96875 C 13.679688 30.863281 13.328125 30.390625 13.332031 29.863281 C 13.335938 29.339844 13.695312 28.871094 14.203125 28.777344 C 14.441406 28.734375 14.683594 28.734375 14.925781 28.734375 C 18.195312 28.734375 21.464844 28.734375 24.734375 28.734375 Z M 24.730469 28.734375 "/>
</g>
</svg>
