<svg width="247" height="247" viewBox="0 0 247 247" fill="none" xmlns="http://www.w3.org/2000/svg">
<circle cx="123.5" cy="123.5" r="123.5" fill="#23C6BC"/>
<path d="M154.686 161.593C154.618 163.979 154.359 166.23 153.14 168.237C151.205 171.419 148.46 173.421 144.701 173.819C143.16 173.983 141.6 174.021 140.045 174.021C124.477 174.035 108.91 174.021 93.3374 174.035C89.3675 174.035 85.9977 172.754 83.4919 169.552C82.0758 167.742 81.3462 165.659 81.1494 163.384C81.1061 162.865 81.1061 162.347 81.1061 161.828C81.1061 140.073 81.1206 118.308 81.0917 96.5485C81.0869 92.5883 82.407 89.2904 85.4937 86.7751C87.1402 85.4358 89.0699 84.7109 91.1676 84.4613C91.9165 84.3701 92.6749 84.3461 93.1886 84.3077C93.8702 82.33 94.2591 80.333 95.2095 78.6529C96.9856 75.5087 99.7746 73.5742 103.452 73.1949C105.036 73.0317 106.634 72.9933 108.228 72.9885C117.526 72.9741 126.829 72.9933 136.128 72.9645C137.452 72.9645 138.47 73.3533 139.44 74.2798C147.831 82.3156 156.251 90.3225 164.685 98.3103C165.587 99.1647 166 100.077 166 101.349C165.966 117.401 165.986 133.453 165.976 149.506C165.976 155.41 162.822 159.62 157.268 161.171C156.471 161.391 155.626 161.449 154.69 161.598L154.686 161.593ZM134.827 77.5968C134.447 77.5728 134.251 77.544 134.059 77.544C124.439 77.544 114.824 77.544 105.204 77.544C100.965 77.544 98.0753 80.8563 98.0897 84.8837C98.1617 106.442 98.1233 127.996 98.1329 149.554C98.1329 150.303 98.1521 151.085 98.3441 151.8C99.2514 155.175 101.815 157.009 105.583 157.014C121.664 157.018 137.75 156.98 153.831 157.042C158.377 157.062 161.478 153.984 161.449 149.453C161.353 134.366 161.411 119.273 161.411 104.186V102.794C160.825 102.794 160.393 102.794 159.966 102.794C156.174 102.794 152.381 102.794 148.594 102.794C145.68 102.794 142.766 102.794 139.853 102.794C138.638 102.794 137.515 102.602 136.521 101.752C135.206 100.629 134.836 99.1839 134.831 97.5806C134.822 91.393 134.827 85.2054 134.827 79.0177C134.827 78.5857 134.827 78.1537 134.827 77.6112V77.5968ZM93.563 88.964C93.1022 88.9448 92.7566 88.9064 92.4109 88.9112C88.3258 88.9688 85.6233 92.4155 85.6377 96.2029C85.7049 118.203 85.6665 140.203 85.6809 162.207C85.6809 162.918 85.7145 163.657 85.9065 164.334C86.8809 167.761 89.3147 169.47 93.1742 169.47C106.826 169.475 120.478 169.47 134.131 169.47C137.083 169.47 140.04 169.509 142.992 169.461C147.49 169.389 150.625 165.889 149.996 161.574H148.608C134.356 161.574 120.104 161.579 105.857 161.569C103.092 161.569 100.485 160.993 98.2193 159.27C94.9455 156.783 93.5582 153.442 93.563 149.395C93.5774 129.791 93.5678 110.186 93.5678 90.5817C93.5678 90.0729 93.5678 89.5593 93.5678 88.9592L93.563 88.964ZM139.449 98.2143H157.998C151.753 92.2906 145.671 86.5206 139.449 80.6162V98.2094V98.2143Z" fill="white"/>
<path d="M129.849 115.313C136.43 115.313 143.011 115.323 149.592 115.303C150.692 115.303 151.561 115.625 152.021 116.672C152.578 117.929 151.911 119.336 150.572 119.705C150.121 119.83 149.626 119.854 149.156 119.854C136.233 119.864 123.311 119.859 110.388 119.859C110.187 119.859 109.99 119.864 109.788 119.859C108.324 119.777 107.364 118.884 107.35 117.588C107.335 116.249 108.329 115.327 109.865 115.323C115.966 115.308 122.067 115.318 128.173 115.318C128.73 115.318 129.292 115.318 129.849 115.318V115.313Z" fill="white"/>
<path d="M129.719 147.038C123.339 147.038 116.955 147.038 110.575 147.038C110.177 147.038 109.774 147.053 109.38 147.014C108.276 146.909 107.465 146.083 107.364 144.993C107.268 143.909 107.916 142.915 108.982 142.641C109.476 142.517 110.004 142.502 110.518 142.502C123.359 142.497 136.204 142.497 149.045 142.497C149.285 142.497 149.525 142.488 149.765 142.497C151.277 142.589 152.285 143.573 152.223 144.878C152.165 146.165 151.191 147.024 149.698 147.024C143.04 147.034 136.377 147.029 129.714 147.029L129.719 147.038Z" fill="white"/>
<path d="M129.887 128.917C136.267 128.917 142.646 128.917 149.031 128.917C149.506 128.917 149.996 128.912 150.461 128.994C151.46 129.176 152.194 130.108 152.218 131.135C152.242 132.148 151.522 133.127 150.538 133.338C150.077 133.439 149.588 133.439 149.112 133.439C136.233 133.444 123.349 133.439 110.47 133.439C109.995 133.439 109.505 133.439 109.044 133.343C108.041 133.137 107.345 132.196 107.354 131.154C107.364 130.112 108.074 129.186 109.078 128.999C109.543 128.912 110.028 128.917 110.508 128.917C116.969 128.917 123.431 128.917 129.892 128.917H129.887Z" fill="white"/>
</svg>
