<svg width="247" height="247" viewBox="0 0 247 247" fill="none" xmlns="http://www.w3.org/2000/svg">
<circle cx="123.5" cy="123.5" r="123.5" fill="#23C6BC"/>
<path d="M98.0087 92.9554C96.1434 79.8089 105.797 72.8826 113.912 73.0015C122.206 73.1278 131.6 79.9203 129.63 92.9554C133.539 92.9554 137.419 92.9182 141.298 92.9628C147.689 93.0297 152.475 96.6638 154.058 102.743C154.444 104.214 154.541 105.79 154.571 107.321C154.645 110.769 154.593 114.217 154.593 117.859C161.341 116.922 166.996 118.609 171.166 124.005C173.856 127.49 174.904 131.481 174.302 135.843C173.105 144.523 165.176 151.338 154.593 149.354C154.593 152.891 154.645 156.392 154.571 159.892C154.534 161.482 154.437 163.125 154.036 164.648C152.43 170.705 147.607 174.324 141.06 174.45C137.166 174.525 133.272 174.502 129.385 174.45C125.402 174.398 123.432 172.117 124.227 168.245C125.238 163.288 124.109 159.186 119.887 156.191C116.343 153.679 111.609 153.687 107.893 156.102C104.296 158.443 102.431 162.813 103.218 167.011C103.33 167.613 103.456 168.223 103.53 168.832C103.917 171.991 102.297 174.28 99.0938 174.376C94.2855 174.525 89.4401 174.584 84.6616 174.161C78.0251 173.574 73.4027 168.505 73.1203 161.832C72.9345 157.454 72.9939 153.062 73.098 148.678C73.1797 145.006 75.8774 143.282 79.8756 144.174C84.5724 145.222 89.6928 142.829 91.7365 138.667C93.8025 134.461 93.2822 130.492 90.4731 126.873C87.7903 123.418 84.0745 122.392 79.8756 123.105C75.1417 123.915 73.0831 122.273 73.0757 117.524C73.0757 113.816 73.0534 110.108 73.0757 106.407C73.1351 98.544 78.6494 93.0297 86.5195 92.9628C90.3393 92.9331 94.1592 92.9628 98.0013 92.9628L98.0087 92.9554ZM129.541 169.137C133.309 169.137 136.884 169.152 140.451 169.137C146.27 169.1 149.213 166.164 149.257 160.36C149.287 156.533 149.287 152.706 149.257 148.871C149.242 147.065 149.896 145.616 151.39 144.598C152.913 143.565 154.541 143.884 156.206 144.219C160.464 145.073 164.053 143.765 166.766 140.436C169.516 137.069 169.835 133.19 168.126 129.296C165.956 124.354 161.43 122.229 155.752 123.202C151.42 123.945 149.287 122.184 149.257 117.799C149.235 114.091 149.294 110.39 149.242 106.682C149.161 101.227 146.099 98.2244 140.688 98.2021C136.675 98.1872 132.655 98.2467 128.642 98.1649C125.922 98.1055 124.071 96.2996 124.071 93.81C124.071 92.829 124.272 91.8481 124.45 90.882C125.796 83.3017 118.498 76.643 111.081 78.6941C105.44 80.2548 102.185 85.5981 103.345 91.4022C104.251 95.9652 102.401 98.1947 97.6892 98.2021C93.8619 98.2021 90.0272 98.1649 86.1999 98.217C82.3652 98.2764 79.1324 100.461 78.7534 104.125C78.2927 108.614 78.642 113.184 78.642 117.71C91.0825 115.443 98.8857 126.108 98.2614 134.409C97.927 138.801 96.3441 142.673 92.9404 145.653C88.749 149.317 83.859 150.32 78.4116 149.361C78.4116 153.679 78.2035 157.885 78.4785 162.055C78.7163 165.681 80.9755 168.498 84.1042 168.743C88.6746 169.1 93.2971 168.832 97.8898 168.832C95.8313 155.336 106.652 148.195 114.997 148.953C123.663 149.74 131.696 157.454 129.519 169.129L129.541 169.137Z" fill="white"/>
</svg>
