<svg width="247" height="247" viewBox="0 0 247 247" fill="none" xmlns="http://www.w3.org/2000/svg">
<circle cx="123.5" cy="123.5" r="123.5" fill="#23C6BC"/>
<g clip-path="url(#clip0_11_21)">
<path d="M155.141 129.263H134.032L134.044 129.572L134.08 130.167L134.096 130.421L134.153 131.108L134.167 131.262L134.249 132.023C134.251 132.047 134.253 132.072 134.257 132.096L134.364 132.913C134.609 134.606 134.971 136.272 135.457 137.911L135.464 137.932L135.716 138.746L135.731 138.791L135.963 139.483L136.024 139.657L136.241 140.255L136.343 140.524L136.536 141.024L136.688 141.396L136.85 141.781L137.064 142.251L137.189 142.537L137.452 143.099L137.539 143.279L137.855 143.918L137.905 144.016L138.291 144.748L138.373 144.891L156.46 133.976C155.749 132.477 155.306 130.883 155.141 129.263H155.141ZM135.029 138.948L135.035 138.968L135.716 138.753L135.029 138.948Z" fill="white"/>
<path d="M160.329 138.959L145.403 153.878L145.633 154.091L146.271 154.656L146.778 155.086L146.915 155.2L147.495 155.667L147.57 155.727L148.209 156.217C148.217 156.222 148.226 156.228 148.233 156.235L151.015 158.115L151.115 158.176L151.663 158.499L151.998 158.69L152.317 158.869L152.898 159.183L152.979 159.226L154.624 160.024L162.656 140.514C161.841 140.078 161.058 139.561 160.321 138.957L160.329 138.959Z" fill="white"/>
<path d="M158.781 137.478L158.317 136.932L157.931 136.434L157.518 135.85L157.133 135.248L139.081 146.121L140.011 147.581L140.086 147.691L140.09 147.698L141.06 149.065L141.081 149.094L141.103 149.122L141.541 149.693L142.067 150.347L142.18 150.483L142.612 150.992L142.802 151.207L143.176 151.636L143.388 151.866L143.484 151.97L143.77 152.27L143.884 152.387L144.384 152.899L159.275 138.009L158.787 137.487L158.781 137.478Z" fill="white"/>
<path d="M178.519 138.951L178.021 139.337L178.058 139.399L188.915 157.42L190.401 156.398C191.451 155.623 192.469 154.784 193.448 153.879L178.578 139.01L178.519 138.951Z" fill="white"/>
<path d="M187.543 158.279L187.568 158.264L187.567 158.264L187.543 158.278V158.279ZM187.533 158.286H187.533H187.533Z" fill="white"/>
<path d="M187.567 158.257L187.71 158.186L187.707 158.181L187.567 158.264V158.257ZM187.536 158.282L187.544 158.278L187.536 158.282Z" fill="white"/>
<path d="M187.533 158.286H187.534L187.507 158.242L187.533 158.286ZM187.544 158.279L187.568 158.266L187.544 158.279ZM187.529 158.286L187.522 158.289L187.529 158.287V158.286Z" fill="white"/>
<path d="M187.529 158.286V158.286L187.533 158.284H187.532L187.529 158.286Z" fill="white"/>
<path d="M187.536 158.282L187.532 158.284L187.543 158.277L187.536 158.282ZM187.568 158.266L187.709 158.186L187.568 158.266ZM187.709 158.186L187.706 158.181L187.709 158.186ZM187.518 158.293H187.519H187.518Z" fill="white"/>
<path d="M187.524 158.29L187.519 158.293L187.524 158.29Z" fill="white"/>
<path d="M187.338 157.569L176.835 140.144L176.211 140.492L175.571 140.813C173.645 141.729 171.539 142.206 169.406 142.208C168.017 142.208 166.636 142.006 165.305 141.609L164.63 141.372L163.956 141.133L155.938 160.604L155.997 160.626L156.058 160.649H156.059L156.075 160.656L157.614 161.246C159.956 162.072 162.379 162.652 164.842 162.975C164.938 162.987 165.034 163 165.13 163.014L166.003 163.109L166.144 163.121L166.844 163.18L167.082 163.194L167.695 163.23L168.07 163.244L168.557 163.261L169.427 163.272C171.398 163.272 173.364 163.108 175.307 162.782L175.406 162.768L176.023 162.655L176.38 162.588L176.741 162.512L177.342 162.38L177.451 162.355C180.406 161.665 183.262 160.601 185.947 159.187L185.948 159.186L186.469 158.9L187.528 158.303L187.511 158.253L187.538 158.298L187.572 158.278L187.711 158.195L187.338 157.569ZM160.337 116.731L160.835 116.346L160.798 116.284L149.941 98.2693L148.452 99.2948C147.402 100.068 146.386 100.907 145.408 101.81L160.279 116.673L160.337 116.731Z" fill="white"/>
<path d="M144.378 102.792L143.389 103.824C142.291 105.013 141.287 106.252 140.381 107.552L140.251 107.737L139.949 108.184L139.642 108.652L139.531 108.824C136.174 114.097 134.277 120.165 134.031 126.411L134.012 127.125L134 127.839H155.06L155.094 127.125L155.134 126.411C155.41 123.596 156.515 120.927 158.31 118.741C158.452 118.558 158.629 118.387 158.79 118.21C158.95 118.034 159.098 117.85 159.268 117.681L144.378 102.792ZM187.831 97.5644L187.744 97.5123L187.185 97.1802L186.859 96.9945L186.53 96.8117L185.959 96.5032L185.869 96.4561C184.633 95.8105 183.365 95.242 182.071 94.7421L181.971 94.7035L181.114 94.3943C178.814 93.5909 176.434 93.0274 174.017 92.7104L173.721 92.6704L173.425 92.6375L172.853 92.5754L172.693 92.5611L172.013 92.504L171.156 92.4518L170.846 92.4397V113.55C171.929 113.662 173.003 113.893 174.044 114.246L189.586 98.7185C189.011 98.3167 188.424 97.9323 187.826 97.5658L187.831 97.5644Z" fill="white"/>
<path d="M151.52 98.1114L151.151 97.4993L151.52 98.1114ZM151.141 97.4972L151.143 97.5008L151.141 97.4972ZM168.715 92.4303L168 92.4446C166.511 92.5046 165.024 92.6567 163.549 92.9038L163.452 92.9202L162.834 93.0323L162.477 93.0995L162.114 93.1752L161.514 93.3066L161.405 93.3309C158.449 94.0211 155.593 95.0862 152.907 96.5002L151.143 97.4958L151.146 97.4993L162.015 115.546L162.64 115.198C162.85 115.085 163.063 114.978 163.279 114.876C164.763 114.168 166.358 113.721 167.993 113.555L168.707 113.498L169.422 113.473L169.422 92.4153C169.184 92.4146 168.946 92.4246 168.708 92.4296L168.715 92.4303Z" fill="white"/>
<path d="M204.813 126.099L204.778 125.531L204.76 125.248L204.705 124.581L204.69 124.408L204.612 123.663L204.605 123.603L204.601 123.575L204.494 122.772C204.493 122.765 204.493 122.754 204.49 122.747C204.248 121.063 203.884 119.399 203.402 117.768L203.392 117.737L203.158 116.977L203.126 116.877L202.897 116.196L202.833 116.012L202.619 115.424L202.511 115.146L202.322 114.661L202.167 114.28L202.009 113.904L201.799 113.426L201.678 113.156L201.412 112.587L201.329 112.414L201.009 111.767L200.962 111.678L200.591 110.964C200.586 110.956 200.582 110.946 200.577 110.939C199.963 109.81 199.29 108.719 198.561 107.669L183.017 123.214C183.368 124.25 183.601 125.323 183.713 126.411H204.824L204.813 126.099Z" fill="white"/>
<path d="M183.795 127.841L183.761 128.555L183.722 129.269C183.45 132.011 182.391 134.696 180.547 136.939C180.404 137.122 180.227 137.293 180.067 137.469C179.906 137.646 179.758 137.829 179.588 137.999L194.479 152.889C194.648 152.72 194.808 152.545 194.972 152.373L195.465 151.857C196.567 150.664 197.574 149.414 198.481 148.117L198.587 147.965L198.914 147.484L199.196 147.052L199.339 146.841C202.754 141.478 204.581 135.401 204.828 129.268L204.847 128.554L204.859 127.84H183.795V127.841Z" fill="white"/>
<path d="M211.11 86.1613C207.257 82.3085 201.01 82.3085 197.157 86.1613C194.083 89.2343 193.469 93.8284 195.3 97.5177L173.81 119.008C170.12 117.178 165.525 117.792 162.452 120.865C160.603 122.715 159.564 125.224 159.564 127.841C159.564 130.457 160.603 132.966 162.452 134.817C164.303 136.666 166.812 137.705 169.429 137.705C172.046 137.705 174.555 136.666 176.406 134.816C179.479 131.743 180.092 127.149 178.263 123.459L199.753 101.97C203.443 103.8 208.037 103.187 211.11 100.114C214.963 96.2622 214.963 90.0156 211.11 86.1627L211.11 86.1613Z" fill="white"/>
</g>
<g clip-path="url(#clip1_11_21)">
<path d="M48.8796 142.008H54.5583C54.7006 142.882 54.7924 143.756 54.9898 144.612C55.5682 147.147 56.9638 149.22 58.8185 150.996C62.2615 154.295 66.4711 156.08 71.0802 157.059C73.7153 157.622 76.3824 157.855 79.068 157.727C84.7605 157.457 90.1178 156.062 94.7865 152.661C97.6374 150.589 99.7996 147.976 100.635 144.457C100.823 143.67 100.883 142.86 101.012 142.018H106.736C106.695 144.219 106.305 146.319 105.455 148.323C103.725 152.428 100.805 155.531 97.1462 157.983C93.3864 160.505 89.2272 162.052 84.7834 162.88C82.3458 163.333 79.8851 163.585 77.4154 163.53C70.5155 163.388 64.0289 161.772 58.2446 157.855C54.3747 155.233 51.3907 151.884 49.7702 147.44C49.1918 145.857 48.7511 143.221 48.875 142.004L48.8796 142.008Z" fill="white"/>
<path d="M54.5308 104.526H48.8337C48.8475 103.02 49.0449 101.57 49.4489 100.147C50.5093 96.408 52.644 93.3421 55.5315 90.7932C59.7642 87.0545 64.7588 84.8763 70.2677 83.7643C72.8706 83.2335 75.4965 82.9544 78.1315 83.0047C85.2563 83.1466 91.9311 84.8535 97.8256 89.0268C101.342 91.5162 104.083 94.6508 105.653 98.7144C106.369 100.568 106.681 102.494 106.745 104.508H100.952C100.897 102.943 100.594 101.437 99.9511 100.009C98.629 97.0716 96.4438 94.8933 93.7812 93.1727C90.5448 91.0769 86.9686 89.8551 83.1675 89.2327C80.3488 88.7706 77.5255 88.6424 74.6977 88.9216C69.68 89.4204 64.9654 90.8298 60.843 93.8317C58.1436 95.7994 56.0227 98.2339 55.0954 101.515C54.8246 102.467 54.7282 103.469 54.5354 104.517L54.5308 104.526Z" fill="white"/>
<path d="M73.3067 110.145C83.2685 117.339 93.1798 124.491 103.132 131.676C101.999 133.236 100.874 134.778 99.7353 136.348C89.7781 129.159 79.876 122.016 69.9142 114.822C71.0481 113.257 72.1682 111.719 73.3113 110.145H73.3067Z" fill="white"/>
<path d="M85.8898 131.708C84.7467 133.282 83.6449 134.801 82.4973 136.384C72.5447 129.2 62.6288 122.043 52.6715 114.854L56.0687 110.182C66.0121 117.362 75.9188 124.514 85.8898 131.712V131.708Z" fill="white"/>
</g>
<defs>
<clipPath id="clip0_11_21">
<rect width="80" height="80" fill="white" transform="translate(134 83.2717)"/>
</clipPath>
<clipPath id="clip1_11_21">
<rect width="57.907" height="80.5434" fill="white" transform="translate(48.8337 83)"/>
</clipPath>
</defs>
</svg>
