<?xml version="1.0" encoding="UTF-8"?>
<svg xmlns="http://www.w3.org/2000/svg" xmlns:xlink="http://www.w3.org/1999/xlink" width="102px" height="102px" viewBox="0 0 51 51" version="1.1">
<g id="surface1">
<path style=" stroke:none;fill-rule:nonzero;fill:rgb(100%,100%,100%);fill-opacity:1;" d="M 12.503906 9.976562 C 11.570312 3.40625 16.398438 -0.0585938 20.457031 0 C 24.601562 0.0625 29.300781 3.460938 28.316406 9.976562 C 30.269531 9.976562 32.210938 9.960938 34.148438 9.980469 C 37.34375 10.015625 39.738281 11.832031 40.527344 14.871094 C 40.722656 15.605469 40.769531 16.394531 40.785156 17.160156 C 40.824219 18.882812 40.796875 20.609375 40.796875 22.429688 C 44.171875 21.960938 47 22.804688 49.082031 25.503906 C 50.429688 27.246094 50.953125 29.242188 50.652344 31.421875 C 50.050781 35.761719 46.085938 39.167969 40.796875 38.175781 C 40.796875 39.945312 40.824219 41.695312 40.785156 43.445312 C 40.765625 44.242188 40.71875 45.0625 40.519531 45.824219 C 39.714844 48.851562 37.304688 50.660156 34.03125 50.726562 C 32.082031 50.761719 30.136719 50.75 28.191406 50.726562 C 26.199219 50.699219 25.214844 49.558594 25.613281 47.621094 C 26.117188 45.144531 25.554688 43.09375 23.445312 41.59375 C 21.671875 40.339844 19.304688 40.34375 17.445312 41.550781 C 15.648438 42.722656 14.714844 44.90625 15.109375 47.003906 C 15.164062 47.308594 15.226562 47.613281 15.265625 47.917969 C 15.457031 49.496094 14.648438 50.640625 13.046875 50.6875 C 10.644531 50.761719 8.21875 50.792969 5.832031 50.582031 C 2.511719 50.285156 0.203125 47.753906 0.0585938 44.414062 C -0.03125 42.226562 -0.00390625 40.03125 0.0507812 37.839844 C 0.0898438 36.003906 1.4375 35.140625 3.4375 35.585938 C 5.785156 36.109375 8.347656 34.914062 9.367188 32.832031 C 10.402344 30.730469 10.140625 28.746094 8.738281 26.9375 C 7.394531 25.207031 5.539062 24.695312 3.4375 25.050781 C 1.070312 25.457031 0.0429688 24.636719 0.0390625 22.261719 C 0.0390625 20.40625 0.0273438 18.554688 0.0390625 16.703125 C 0.0664062 12.773438 2.824219 10.015625 6.757812 9.980469 C 8.667969 9.964844 10.578125 9.980469 12.5 9.980469 Z M 28.269531 48.070312 C 30.15625 48.070312 31.941406 48.074219 33.726562 48.070312 C 36.636719 48.050781 38.105469 46.582031 38.128906 43.679688 C 38.144531 41.765625 38.144531 39.851562 38.128906 37.933594 C 38.121094 37.03125 38.449219 36.308594 39.195312 35.800781 C 39.957031 35.28125 40.769531 35.441406 41.601562 35.609375 C 43.730469 36.035156 45.527344 35.382812 46.882812 33.71875 C 48.257812 32.035156 48.417969 30.09375 47.5625 28.148438 C 46.476562 25.675781 44.214844 24.613281 41.375 25.101562 C 39.210938 25.472656 38.144531 24.59375 38.128906 22.398438 C 38.117188 20.546875 38.148438 18.695312 38.121094 16.839844 C 38.082031 14.113281 36.550781 12.613281 33.84375 12.601562 C 31.835938 12.59375 29.828125 12.625 27.820312 12.582031 C 26.460938 12.554688 25.535156 11.648438 25.535156 10.40625 C 25.535156 9.914062 25.636719 9.425781 25.726562 8.941406 C 26.398438 5.152344 22.75 1.820312 19.039062 2.847656 C 16.21875 3.628906 14.59375 6.300781 15.171875 9.199219 C 15.625 11.484375 14.699219 12.597656 12.34375 12.601562 C 10.429688 12.601562 8.511719 12.582031 6.601562 12.609375 C 4.683594 12.636719 3.066406 13.730469 2.875 15.5625 C 2.644531 17.808594 2.820312 20.09375 2.820312 22.355469 C 9.042969 21.222656 12.941406 26.554688 12.628906 30.703125 C 12.464844 32.902344 11.671875 34.835938 9.96875 36.328125 C 7.875 38.160156 5.429688 38.660156 2.707031 38.179688 C 2.707031 40.339844 2.601562 42.441406 2.738281 44.527344 C 2.859375 46.339844 3.988281 47.75 5.550781 47.871094 C 7.835938 48.050781 10.148438 47.917969 12.445312 47.917969 C 11.414062 41.167969 16.824219 37.597656 21 37.976562 C 25.332031 38.371094 29.347656 42.226562 28.257812 48.066406 Z M 28.269531 48.070312 "/>
</g>
</svg>
