<?xml version="1.0" encoding="UTF-8"?>
<svg xmlns="http://www.w3.org/2000/svg" xmlns:xlink="http://www.w3.org/1999/xlink" width="166px" height="81px" viewBox="0 0 84 41" version="1.1">
<defs>
<clipPath id="clip1">
  <path d="M 43.519531 23 L 55 23 L 55 32 L 43.519531 32 Z M 43.519531 23 "/>
</clipPath>
<clipPath id="clip2">
  <path d="M 49 7 L 71 7 L 71 40.632812 L 49 40.632812 Z M 49 7 "/>
</clipPath>
<clipPath id="clip3">
  <path d="M 43.519531 4 L 72 4 L 72 23 L 43.519531 23 Z M 43.519531 4 "/>
</clipPath>
<clipPath id="clip4">
  <path d="M 56 0.136719 L 84 0.136719 L 84 28 L 56 28 Z M 56 0.136719 "/>
</clipPath>
<clipPath id="clip5">
  <path d="M 0.421875 29 L 29.722656 29 L 29.722656 40.769531 L 0.421875 40.769531 Z M 0.421875 29 "/>
</clipPath>
<clipPath id="clip6">
  <path d="M 0.421875 0 L 29.722656 0 L 29.722656 11 L 0.421875 11 Z M 0.421875 0 "/>
</clipPath>
</defs>
<g id="surface1">
<g clip-path="url(#clip1)" clip-rule="nonzero">
<path style=" stroke:none;fill-rule:nonzero;fill:rgb(100%,100%,100%);fill-opacity:1;" d="M 54.214844 23.417969 L 43.535156 23.417969 L 43.539062 23.574219 L 43.558594 23.875 L 43.566406 24.003906 L 43.59375 24.351562 L 43.601562 24.429688 L 43.644531 24.8125 C 43.644531 24.828125 43.644531 24.839844 43.648438 24.851562 L 43.703125 25.265625 C 43.824219 26.121094 44.007812 26.964844 44.253906 27.792969 L 44.257812 27.804688 L 44.386719 28.21875 L 44.394531 28.238281 L 44.511719 28.589844 L 44.542969 28.679688 L 44.652344 28.980469 L 44.703125 29.117188 L 44.800781 29.371094 L 44.878906 29.558594 L 44.960938 29.753906 L 45.070312 29.992188 L 45.132812 30.136719 L 45.265625 30.421875 L 45.308594 30.511719 L 45.46875 30.835938 L 45.496094 30.882812 L 45.6875 31.253906 L 45.730469 31.328125 L 54.882812 25.804688 C 54.523438 25.042969 54.300781 24.238281 54.214844 23.417969 Z M 44.039062 28.320312 L 44.042969 28.328125 L 44.386719 28.222656 Z M 44.039062 28.320312 "/>
</g>
<path style=" stroke:none;fill-rule:nonzero;fill:rgb(100%,100%,100%);fill-opacity:1;" d="M 56.839844 28.324219 L 49.289062 35.875 L 49.40625 35.984375 L 49.726562 36.269531 L 49.984375 36.488281 L 50.054688 36.546875 L 50.386719 36.8125 L 50.707031 37.058594 C 50.710938 37.0625 50.714844 37.066406 50.71875 37.070312 L 52.128906 38.019531 L 52.179688 38.050781 L 52.457031 38.214844 L 52.625 38.3125 L 52.785156 38.402344 L 53.082031 38.5625 L 53.121094 38.582031 L 53.953125 38.988281 L 58.019531 29.113281 C 57.605469 28.890625 57.210938 28.628906 56.835938 28.324219 Z M 56.839844 28.324219 "/>
<path style=" stroke:none;fill-rule:nonzero;fill:rgb(100%,100%,100%);fill-opacity:1;" d="M 56.058594 27.574219 L 55.824219 27.296875 L 55.628906 27.046875 L 55.417969 26.75 L 55.222656 26.445312 L 46.089844 31.949219 L 46.558594 32.6875 L 46.597656 32.746094 L 46.601562 32.75 L 47.089844 33.441406 L 47.101562 33.453125 L 47.113281 33.46875 L 47.335938 33.757812 L 47.601562 34.089844 L 47.65625 34.15625 L 47.875 34.414062 L 47.972656 34.523438 L 48.160156 34.742188 L 48.269531 34.859375 L 48.316406 34.910156 L 48.460938 35.0625 L 48.519531 35.121094 L 48.773438 35.378906 L 56.308594 27.84375 L 56.0625 27.578125 Z M 56.058594 27.574219 "/>
<path style=" stroke:none;fill-rule:nonzero;fill:rgb(100%,100%,100%);fill-opacity:1;" d="M 66.046875 28.320312 L 65.792969 28.515625 L 65.8125 28.546875 L 71.304688 37.667969 L 72.058594 37.152344 C 72.589844 36.757812 73.105469 36.335938 73.601562 35.878906 L 66.074219 28.351562 Z M 66.046875 28.320312 "/>
<path style=" stroke:none;fill-rule:nonzero;fill:rgb(100%,100%,100%);fill-opacity:1;" d="M 70.613281 38.105469 L 70.625 38.097656 Z M 70.605469 38.109375 Z M 70.605469 38.109375 "/>
<path style=" stroke:none;fill-rule:nonzero;fill:rgb(100%,100%,100%);fill-opacity:1;" d="M 70.625 38.09375 L 70.695312 38.058594 L 70.695312 38.054688 L 70.625 38.097656 Z M 70.609375 38.105469 L 70.613281 38.105469 Z M 70.609375 38.105469 "/>
<path style=" stroke:none;fill-rule:nonzero;fill:rgb(100%,100%,100%);fill-opacity:1;" d="M 70.605469 38.109375 L 70.609375 38.109375 L 70.59375 38.085938 Z M 70.613281 38.105469 L 70.625 38.097656 Z M 70.605469 38.109375 L 70.601562 38.109375 Z M 70.605469 38.109375 "/>
<path style=" stroke:none;fill-rule:nonzero;fill:rgb(100%,100%,100%);fill-opacity:1;" d="M 70.609375 38.105469 L 70.605469 38.105469 L 70.613281 38.101562 Z M 70.625 38.097656 L 70.695312 38.058594 Z M 70.695312 38.058594 L 70.695312 38.054688 Z M 70.597656 38.109375 L 70.601562 38.109375 Z M 70.597656 38.109375 "/>
<g clip-path="url(#clip2)" clip-rule="nonzero">
<path style=" stroke:none;fill-rule:nonzero;fill:rgb(100%,100%,100%);fill-opacity:1;" d="M 70.507812 37.746094 L 65.195312 28.925781 L 64.878906 29.101562 L 64.554688 29.261719 C 63.578125 29.726562 62.515625 29.96875 61.433594 29.96875 C 60.730469 29.96875 60.03125 29.867188 59.359375 29.667969 L 59.019531 29.546875 L 58.675781 29.425781 L 54.621094 39.28125 L 54.648438 39.292969 L 54.679688 39.304688 L 54.6875 39.308594 L 55.46875 39.605469 C 56.652344 40.023438 57.878906 40.316406 59.125 40.480469 C 59.171875 40.488281 59.222656 40.492188 59.269531 40.5 L 59.710938 40.550781 L 59.785156 40.554688 L 60.136719 40.585938 L 60.257812 40.59375 L 60.570312 40.609375 L 60.757812 40.617188 L 61.003906 40.625 L 61.445312 40.632812 C 62.441406 40.632812 63.4375 40.546875 64.421875 40.382812 L 64.46875 40.375 L 64.78125 40.320312 L 64.964844 40.285156 L 65.144531 40.246094 L 65.449219 40.179688 L 65.503906 40.167969 C 67 39.816406 68.445312 39.28125 69.804688 38.5625 L 70.070312 38.417969 L 70.605469 38.117188 L 70.597656 38.089844 L 70.609375 38.113281 L 70.625 38.105469 L 70.695312 38.0625 Z M 56.84375 17.074219 L 57.097656 16.878906 L 57.078125 16.847656 L 51.585938 7.730469 L 50.832031 8.246094 C 50.300781 8.640625 49.785156 9.0625 49.289062 9.519531 L 56.816406 17.042969 Z M 56.84375 17.074219 "/>
</g>
<g clip-path="url(#clip3)" clip-rule="nonzero">
<path style=" stroke:none;fill-rule:nonzero;fill:rgb(100%,100%,100%);fill-opacity:1;" d="M 48.769531 10.019531 L 48.269531 10.539062 C 47.714844 11.140625 47.207031 11.769531 46.746094 12.425781 L 46.679688 12.519531 L 46.527344 12.746094 L 46.375 12.984375 L 46.316406 13.070312 C 44.617188 15.742188 43.65625 18.8125 43.535156 21.972656 L 43.523438 22.335938 L 43.519531 22.695312 L 54.175781 22.695312 L 54.191406 22.335938 L 54.210938 21.972656 C 54.351562 20.546875 54.910156 19.199219 55.820312 18.089844 C 55.890625 18 55.980469 17.910156 56.0625 17.824219 C 56.144531 17.734375 56.21875 17.640625 56.304688 17.554688 Z M 70.757812 7.371094 L 70.714844 7.347656 L 70.429688 7.175781 L 70.265625 7.082031 L 70.097656 6.992188 L 69.8125 6.835938 L 69.765625 6.8125 C 69.140625 6.484375 68.496094 6.195312 67.84375 5.945312 L 67.792969 5.925781 L 67.359375 5.765625 C 66.195312 5.359375 64.992188 5.074219 63.769531 4.914062 L 63.617188 4.894531 L 63.46875 4.878906 L 63.179688 4.847656 L 63.097656 4.839844 L 62.753906 4.8125 L 62.320312 4.785156 L 62.164062 4.777344 L 62.164062 15.464844 C 62.710938 15.519531 63.253906 15.636719 63.78125 15.816406 L 71.644531 7.957031 C 71.355469 7.753906 71.058594 7.558594 70.753906 7.371094 Z M 70.757812 7.371094 "/>
</g>
<path style=" stroke:none;fill-rule:nonzero;fill:rgb(100%,100%,100%);fill-opacity:1;" d="M 52.382812 7.648438 L 52.195312 7.339844 Z M 52.191406 7.339844 Z M 61.085938 4.773438 L 60.722656 4.78125 C 59.96875 4.8125 59.21875 4.886719 58.46875 5.011719 L 58.421875 5.019531 L 58.109375 5.078125 L 57.929688 5.113281 L 57.746094 5.152344 L 57.441406 5.21875 L 57.386719 5.230469 C 55.890625 5.578125 54.445312 6.117188 53.085938 6.832031 L 52.191406 7.335938 L 52.195312 7.339844 L 57.695312 16.472656 L 58.011719 16.296875 C 58.117188 16.242188 58.226562 16.1875 58.332031 16.132812 C 59.085938 15.777344 59.890625 15.550781 60.71875 15.464844 L 61.082031 15.4375 L 61.441406 15.425781 L 61.441406 4.765625 C 61.320312 4.765625 61.203125 4.769531 61.082031 4.773438 Z M 61.085938 4.773438 "/>
<path style=" stroke:none;fill-rule:nonzero;fill:rgb(100%,100%,100%);fill-opacity:1;" d="M 79.351562 21.816406 L 79.332031 21.527344 L 79.324219 21.386719 L 79.296875 21.046875 L 79.289062 20.960938 L 79.25 20.582031 L 79.246094 20.550781 L 79.242188 20.539062 L 79.191406 20.132812 C 79.1875 20.128906 79.1875 20.121094 79.1875 20.117188 C 79.066406 19.265625 78.882812 18.425781 78.636719 17.597656 L 78.632812 17.582031 L 78.515625 17.199219 L 78.496094 17.148438 L 78.382812 16.804688 L 78.347656 16.710938 L 78.242188 16.414062 L 78.1875 16.269531 L 78.089844 16.027344 L 78.011719 15.832031 L 77.933594 15.644531 L 77.824219 15.402344 L 77.765625 15.265625 L 77.628906 14.976562 L 77.589844 14.886719 L 77.425781 14.5625 L 77.402344 14.515625 L 77.214844 14.15625 C 77.210938 14.152344 77.210938 14.144531 77.207031 14.140625 C 76.898438 13.570312 76.554688 13.019531 76.1875 12.488281 L 68.320312 20.355469 C 68.5 20.878906 68.617188 21.421875 68.675781 21.972656 L 79.355469 21.972656 Z M 79.351562 21.816406 "/>
<path style=" stroke:none;fill-rule:nonzero;fill:rgb(100%,100%,100%);fill-opacity:1;" d="M 68.714844 22.695312 L 68.699219 23.058594 L 68.679688 23.421875 C 68.539062 24.808594 68.003906 26.167969 67.070312 27.300781 C 67 27.394531 66.910156 27.480469 66.828125 27.570312 C 66.746094 27.660156 66.671875 27.753906 66.585938 27.839844 L 74.121094 35.375 C 74.207031 35.289062 74.289062 35.203125 74.371094 35.113281 L 74.621094 34.851562 C 75.179688 34.25 75.6875 33.617188 76.148438 32.960938 L 76.199219 32.882812 L 76.367188 32.640625 L 76.507812 32.421875 L 76.582031 32.316406 C 78.308594 29.601562 79.234375 26.523438 79.359375 23.417969 L 79.367188 23.058594 L 79.375 22.695312 Z M 68.714844 22.695312 "/>
<g clip-path="url(#clip4)" clip-rule="nonzero">
<path style=" stroke:none;fill-rule:nonzero;fill:rgb(100%,100%,100%);fill-opacity:1;" d="M 82.539062 1.601562 C 80.585938 -0.351562 77.425781 -0.351562 75.476562 1.601562 C 73.921875 3.15625 73.609375 5.480469 74.539062 7.347656 L 63.664062 18.226562 C 61.796875 17.300781 59.46875 17.609375 57.914062 19.167969 C 56.980469 20.101562 56.453125 21.371094 56.453125 22.695312 C 56.453125 24.019531 56.980469 25.292969 57.914062 26.226562 C 58.851562 27.164062 60.121094 27.691406 61.445312 27.691406 C 62.769531 27.691406 64.039062 27.164062 64.976562 26.226562 C 66.53125 24.671875 66.839844 22.347656 65.917969 20.480469 L 76.789062 9.601562 C 78.65625 10.527344 80.984375 10.21875 82.539062 8.664062 C 84.488281 6.714844 84.488281 3.550781 82.539062 1.601562 Z M 82.539062 1.601562 "/>
</g>
<g clip-path="url(#clip5)" clip-rule="nonzero">
<path style=" stroke:none;fill-rule:nonzero;fill:rgb(100%,100%,100%);fill-opacity:1;" d="M 0.445312 29.867188 L 3.320312 29.867188 C 3.390625 30.3125 3.4375 30.753906 3.535156 31.1875 C 3.828125 32.46875 4.535156 33.519531 5.472656 34.417969 C 7.214844 36.085938 9.347656 36.992188 11.679688 37.488281 C 13.011719 37.773438 14.363281 37.890625 15.722656 37.824219 C 18.601562 37.6875 21.3125 36.980469 23.675781 35.261719 C 25.117188 34.210938 26.210938 32.890625 26.632812 31.109375 C 26.730469 30.710938 26.761719 30.300781 26.824219 29.875 L 29.722656 29.875 C 29.699219 30.988281 29.503906 32.050781 29.074219 33.066406 C 28.199219 35.144531 26.71875 36.714844 24.871094 37.953125 C 22.964844 39.230469 20.863281 40.015625 18.613281 40.433594 C 17.378906 40.664062 16.132812 40.789062 14.886719 40.761719 C 11.394531 40.691406 8.109375 39.871094 5.183594 37.890625 C 3.226562 36.5625 1.714844 34.867188 0.894531 32.617188 C 0.601562 31.816406 0.378906 30.480469 0.441406 29.867188 Z M 0.445312 29.867188 "/>
</g>
<g clip-path="url(#clip6)" clip-rule="nonzero">
<path style=" stroke:none;fill-rule:nonzero;fill:rgb(100%,100%,100%);fill-opacity:1;" d="M 3.304688 10.894531 L 0.421875 10.894531 C 0.429688 10.132812 0.527344 9.398438 0.734375 8.679688 C 1.269531 6.785156 2.351562 5.234375 3.8125 3.945312 C 5.953125 2.050781 8.480469 0.949219 11.269531 0.386719 C 12.585938 0.117188 13.914062 -0.0234375 15.246094 0.00390625 C 18.851562 0.0742188 22.230469 0.9375 25.214844 3.050781 C 26.992188 4.3125 28.378906 5.898438 29.171875 7.953125 C 29.535156 8.890625 29.695312 9.867188 29.726562 10.886719 L 26.792969 10.886719 C 26.765625 10.09375 26.613281 9.332031 26.289062 8.609375 C 25.621094 7.121094 24.515625 6.019531 23.167969 5.148438 C 21.527344 4.089844 19.71875 3.46875 17.796875 3.15625 C 16.371094 2.921875 14.941406 2.855469 13.507812 2.996094 C 10.96875 3.25 8.585938 3.964844 6.5 5.484375 C 5.132812 6.480469 4.058594 7.710938 3.589844 9.371094 C 3.453125 9.851562 3.40625 10.359375 3.308594 10.890625 Z M 3.304688 10.894531 "/>
</g>
<path style=" stroke:none;fill-rule:nonzero;fill:rgb(100%,100%,100%);fill-opacity:1;" d="M 12.804688 13.738281 C 17.847656 17.382812 22.863281 21 27.898438 24.636719 C 27.324219 25.429688 26.753906 26.207031 26.179688 27.003906 C 21.140625 23.363281 16.128906 19.75 11.089844 16.109375 C 11.664062 15.316406 12.230469 14.535156 12.808594 13.738281 Z M 12.804688 13.738281 "/>
<path style=" stroke:none;fill-rule:nonzero;fill:rgb(100%,100%,100%);fill-opacity:1;" d="M 19.171875 24.65625 C 18.59375 25.453125 18.039062 26.21875 17.457031 27.023438 C 12.421875 23.386719 7.402344 19.761719 2.363281 16.125 L 4.082031 13.757812 C 9.113281 17.394531 14.128906 21.011719 19.171875 24.65625 Z M 19.171875 24.65625 "/>
</g>
</svg>
